<mxfile host="Electron" modified="2025-03-14T13:04:29.091Z" agent="Mozilla/5.0 (X11; Linux x86_64) AppleWebKit/537.36 (KHTML, like Gecko) draw.io/24.6.1 Chrome/124.0.6367.207 Electron/30.0.6 Safari/537.36" etag="LWAgtuSbEuUuG6N7xM9n" version="24.6.1" type="device">
  <diagram name="Page-1" id="42789a77-a242-8287-6e28-9cd8cfd52e62">
    <mxGraphModel dx="1434" dy="854" grid="1" gridSize="10" guides="1" tooltips="1" connect="1" arrows="1" fold="1" page="1" pageScale="1" pageWidth="1100" pageHeight="850" background="none" math="0" shadow="0">
      <root>
        <mxCell id="0" />
        <mxCell id="1" parent="0" />
        <mxCell id="1ea317790d2ca983-12" style="edgeStyle=none;rounded=1;html=1;labelBackgroundColor=#FFFFFF;startArrow=none;startFill=0;startSize=5;endArrow=classicThin;endFill=1;endSize=5;jettySize=auto;orthogonalLoop=1;strokeColor=#B3B3B3;strokeWidth=1;fontFamily=Verdana;fontSize=12" parent="1" source="1ea317790d2ca983-1" target="1ea317790d2ca983-2" edge="1">
          <mxGeometry relative="1" as="geometry" />
        </mxCell>
        <mxCell id="HcVnFmdXPQnl5_f3OCca-1" value="&lt;font style=&quot;font-size: 12px;&quot; face=&quot;Verdana&quot;&gt;identified_by&lt;/font&gt;" style="edgeLabel;html=1;align=center;verticalAlign=middle;resizable=0;points=[];labelBackgroundColor=#FFFFFF;" parent="1ea317790d2ca983-12" vertex="1" connectable="0">
          <mxGeometry x="-0.08" y="-2" relative="1" as="geometry">
            <mxPoint as="offset" />
          </mxGeometry>
        </mxCell>
        <mxCell id="1ea317790d2ca983-14" value="created_by" style="edgeStyle=none;rounded=1;html=1;labelBackgroundColor=#FFFFFF;startArrow=none;startFill=0;startSize=5;endArrow=classicThin;endFill=1;endSize=5;jettySize=auto;orthogonalLoop=1;strokeColor=#B3B3B3;strokeWidth=1;fontFamily=Verdana;fontSize=12" parent="1" source="1ea317790d2ca983-1" target="1ea317790d2ca983-3" edge="1">
          <mxGeometry relative="1" as="geometry" />
        </mxCell>
        <mxCell id="1ea317790d2ca983-1" value="LinguisticObject&lt;div&gt;&lt;span style=&quot;font-size: 11px; background-color: initial;&quot;&gt;(Text&lt;/span&gt;&lt;span style=&quot;font-size: 11px; background-color: initial;&quot;&gt;)&lt;/span&gt;&lt;/div&gt;" style="ellipse;whiteSpace=wrap;html=1;rounded=0;shadow=1;comic=0;labelBackgroundColor=none;strokeWidth=2;fontFamily=Verdana;fontSize=12;align=center;fillColor=#ffff88;strokeColor=#36393d;" parent="1" vertex="1">
          <mxGeometry x="440" y="270" width="130" height="60" as="geometry" />
        </mxCell>
        <mxCell id="1ea317790d2ca983-2" value="&lt;span&gt;Name&lt;/span&gt;&lt;div&gt;&lt;span&gt;&lt;font style=&quot;font-size: 9px;&quot;&gt;(= literal title + language)&lt;/font&gt;&lt;/span&gt;&lt;/div&gt;" style="ellipse;whiteSpace=wrap;html=1;rounded=0;shadow=1;comic=0;labelBackgroundColor=none;strokeWidth=1;fontFamily=Verdana;fontSize=12;align=center;fillColor=#fff2cc;strokeColor=#d6b656;" parent="1" vertex="1">
          <mxGeometry x="710" y="270" width="130" height="60" as="geometry" />
        </mxCell>
        <mxCell id="1ea317790d2ca983-15" value="" style="edgeStyle=none;rounded=1;html=1;labelBackgroundColor=none;startArrow=none;startFill=0;startSize=5;endArrow=classicThin;endFill=1;endSize=5;jettySize=auto;orthogonalLoop=1;strokeColor=#B3B3B3;strokeWidth=1;fontFamily=Verdana;fontSize=12" parent="1" source="1ea317790d2ca983-3" target="1ea317790d2ca983-4" edge="1">
          <mxGeometry relative="1" as="geometry" />
        </mxCell>
        <mxCell id="HcVnFmdXPQnl5_f3OCca-5" value="&lt;font style=&quot;font-size: 13px;&quot; face=&quot;Verdana&quot;&gt;carried_out_by&lt;/font&gt;" style="edgeLabel;html=1;align=center;verticalAlign=middle;resizable=0;points=[];" parent="1ea317790d2ca983-15" vertex="1" connectable="0">
          <mxGeometry x="-0.0337" y="3" relative="1" as="geometry">
            <mxPoint as="offset" />
          </mxGeometry>
        </mxCell>
        <mxCell id="1ea317790d2ca983-3" value="&lt;span&gt;Creation&lt;/span&gt;" style="ellipse;whiteSpace=wrap;html=1;rounded=0;shadow=1;comic=0;labelBackgroundColor=none;strokeWidth=1;fontFamily=Verdana;fontSize=12;align=center;fillColor=#cce5ff;strokeColor=#36393d;" parent="1" vertex="1">
          <mxGeometry x="440" y="370" width="130" height="60" as="geometry" />
        </mxCell>
        <mxCell id="1ea317790d2ca983-4" value="&lt;span&gt;Person&lt;/span&gt;&lt;div&gt;&lt;span&gt;&lt;font style=&quot;font-size: 9px;&quot;&gt;(= author)&lt;/font&gt;&lt;/span&gt;&lt;/div&gt;" style="ellipse;whiteSpace=wrap;html=1;rounded=0;shadow=1;comic=0;labelBackgroundColor=none;strokeWidth=1;fontFamily=Verdana;fontSize=12;align=center;fillColor=#ffcccc;strokeColor=#36393d;" parent="1" vertex="1">
          <mxGeometry x="330" y="470" width="130" height="60" as="geometry" />
        </mxCell>
        <mxCell id="HcVnFmdXPQnl5_f3OCca-2" value="" style="edgeStyle=none;rounded=1;html=1;labelBackgroundColor=#FFFFFF;startArrow=none;startFill=0;startSize=5;endArrow=classicThin;endFill=1;endSize=5;jettySize=auto;orthogonalLoop=1;strokeColor=#B3B3B3;strokeWidth=1;fontFamily=Verdana;fontSize=12;" parent="1" source="1ea317790d2ca983-3" target="HcVnFmdXPQnl5_f3OCca-3" edge="1">
          <mxGeometry relative="1" as="geometry">
            <mxPoint x="888" y="230" as="sourcePoint" />
          </mxGeometry>
        </mxCell>
        <mxCell id="HcVnFmdXPQnl5_f3OCca-4" value="&lt;font style=&quot;font-size: 12px;&quot; face=&quot;Verdana&quot;&gt;timespan&lt;/font&gt;" style="edgeLabel;html=1;align=center;verticalAlign=middle;resizable=0;points=[];labelBackgroundColor=#FFFFFF;" parent="HcVnFmdXPQnl5_f3OCca-2" vertex="1" connectable="0">
          <mxGeometry x="-0.1032" y="-1" relative="1" as="geometry">
            <mxPoint y="1" as="offset" />
          </mxGeometry>
        </mxCell>
        <mxCell id="HcVnFmdXPQnl5_f3OCca-3" value="&lt;span&gt;TimeSpan&lt;/span&gt;&lt;div&gt;&lt;span&gt;&lt;font style=&quot;font-size: 9px;&quot;&gt;(= premiere date)&lt;/font&gt;&lt;/span&gt;&lt;/div&gt;" style="ellipse;whiteSpace=wrap;html=1;rounded=0;shadow=1;comic=0;labelBackgroundColor=none;strokeWidth=1;fontFamily=Verdana;fontSize=12;align=center;fillColor=#dae8fc;strokeColor=#6c8ebf;" parent="1" vertex="1">
          <mxGeometry x="550" y="470" width="130" height="60" as="geometry" />
        </mxCell>
      </root>
    </mxGraphModel>
  </diagram>
</mxfile>
